REM DIRINDEX 1\2,1\3
REM DIRNAME cjc039,folder01,folder02
TITLE ""
FILE "1421-1440.mp3" MP3
  TRACK 01 AUDIO
    TITLE "0:"
    INDEX 01 00:00:00
  TRACK 02 AUDIO
    TITLE "2:cjc039_1841"
    INDEX 01 00:00:25
  TRACK 03 AUDIO
    TITLE "0:"
    INDEX 01 00:01:38
  TRACK 04 AUDIO
    TITLE "3:cjc039_1842"
    INDEX 01 00:02:16
  TRACK 05 AUDIO
    TITLE "0:"
    INDEX 01 00:04:60
  TRACK 06 AUDIO
    TITLE "2:cjc039_1843"
    INDEX 01 00:06:41
  TRACK 07 AUDIO
    TITLE "0:"
    INDEX 01 00:08:07
  TRACK 08 AUDIO
    TITLE "3:cjc039_1844"
    INDEX 01 00:08:62
  TRACK 09 AUDIO
    TITLE "0:"
    INDEX 01 00:12:38
  TRACK 10 AUDIO
    TITLE "2:cjc039_1845"
    INDEX 01 00:14:17
  TRACK 11 AUDIO
    TITLE "0:"
    INDEX 01 00:15:11
  TRACK 12 AUDIO
    TITLE "3:cjc039_1846"
    INDEX 01 00:15:68
  TRACK 13 AUDIO
    TITLE "0:"
    INDEX 01 00:19:09
  TRACK 14 AUDIO
    TITLE "2:cjc039_1847"
    INDEX 01 00:20:59
  TRACK 15 AUDIO
    TITLE "0:"
    INDEX 01 00:22:07
  TRACK 16 AUDIO
    TITLE "3:cjc039_1848"
    INDEX 01 00:22:54
  TRACK 17 AUDIO
    TITLE "0:"
    INDEX 01 00:27:26
  TRACK 18 AUDIO
    TITLE "2:cjc039_1849"
    INDEX 01 00:29:01
  TRACK 19 AUDIO
    TITLE "0:"
    INDEX 01 00:30:01
  TRACK 20 AUDIO
    TITLE "3:cjc039_1850"
    INDEX 01 00:30:54
  TRACK 21 AUDIO
    TITLE "0:"
    INDEX 01 00:33:73
  TRACK 22 AUDIO
    TITLE "2:cjc039_1851"
    INDEX 01 00:35:49
  TRACK 23 AUDIO
    TITLE "0:"
    INDEX 01 00:37:01
  TRACK 24 AUDIO
    TITLE "3:cjc039_1852"
    INDEX 01 00:37:56
  TRACK 25 AUDIO
    TITLE "0:"
    INDEX 01 00:41:08
  TRACK 26 AUDIO
    TITLE "2:cjc039_1853"
    INDEX 01 00:42:61
  TRACK 27 AUDIO
    TITLE "0:"
    INDEX 01 00:43:72
  TRACK 28 AUDIO
    TITLE "3:cjc039_1854"
    INDEX 01 00:44:52
  TRACK 29 AUDIO
    TITLE "0:"
    INDEX 01 00:48:18
  TRACK 30 AUDIO
    TITLE "2:cjc039_1855"
    INDEX 01 00:49:61
  TRACK 31 AUDIO
    TITLE "0:"
    INDEX 01 00:51:15
  TRACK 32 AUDIO
    TITLE "3:cjc039_1856"
    INDEX 01 00:51:63
  TRACK 33 AUDIO
    TITLE "0:"
    INDEX 01 00:55:50
  TRACK 34 AUDIO
    TITLE "2:cjc039_1857"
    INDEX 01 00:57:27
  TRACK 35 AUDIO
    TITLE "0:"
    INDEX 01 00:58:30
  TRACK 36 AUDIO
    TITLE "3:cjc039_1858"
    INDEX 01 00:59:04
  TRACK 37 AUDIO
    TITLE "0:"
    INDEX 01 01:02:34
  TRACK 38 AUDIO
    TITLE "2:cjc039_1859"
    INDEX 01 01:04:11
  TRACK 39 AUDIO
    TITLE "0:"
    INDEX 01 01:05:38
  TRACK 40 AUDIO
    TITLE "3:cjc039_1860"
    INDEX 01 01:06:10
  TRACK 41 AUDIO
    TITLE "0:"
    INDEX 01 01:11:33
  TRACK 42 AUDIO
    TITLE "2:cjc039_1861"
    INDEX 01 01:13:12
  TRACK 43 AUDIO
    TITLE "0:"
    INDEX 01 01:13:73
  TRACK 44 AUDIO
    TITLE "3:cjc039_1862"
    INDEX 01 01:14:57
  TRACK 45 AUDIO
    TITLE "0:"
    INDEX 01 01:17:53
  TRACK 46 AUDIO
    TITLE "2:cjc039_1863"
    INDEX 01 01:19:38
  TRACK 47 AUDIO
    TITLE "0:"
    INDEX 01 01:20:55
  TRACK 48 AUDIO
    TITLE "3:cjc039_1864"
    INDEX 01 01:21:35
  TRACK 49 AUDIO
    TITLE "0:"
    INDEX 01 01:24:57
  TRACK 50 AUDIO
    TITLE "2:cjc039_1865"
    INDEX 01 01:26:34
  TRACK 51 AUDIO
    TITLE "0:"
    INDEX 01 01:27:42
  TRACK 52 AUDIO
    TITLE "3:cjc039_1866"
    INDEX 01 01:28:22
  TRACK 53 AUDIO
    TITLE "0:"
    INDEX 01 01:31:38
  TRACK 54 AUDIO
    TITLE "2:cjc039_1867"
    INDEX 01 01:33:17
  TRACK 55 AUDIO
    TITLE "0:"
    INDEX 01 01:34:40
  TRACK 56 AUDIO
    TITLE "3:cjc039_1868"
    INDEX 01 01:35:22
  TRACK 57 AUDIO
    TITLE "0:"
    INDEX 01 01:38:63
  TRACK 58 AUDIO
    TITLE "2:cjc039_1869"
    INDEX 01 01:40:36
  TRACK 59 AUDIO
    TITLE "0:"
    INDEX 01 01:41:44
  TRACK 60 AUDIO
    TITLE "3:cjc039_1870"
    INDEX 01 01:42:24
  TRACK 61 AUDIO
    TITLE "0:"
    INDEX 01 01:45:42
  TRACK 62 AUDIO
    TITLE "2:cjc039_1871"
    INDEX 01 01:47:19
  TRACK 63 AUDIO
    TITLE "0:"
    INDEX 01 01:48:50
  TRACK 64 AUDIO
    TITLE "3:cjc039_1872"
    INDEX 01 01:49:26
  TRACK 65 AUDIO
    TITLE "0:"
    INDEX 01 01:53:59
  TRACK 66 AUDIO
    TITLE "2:cjc039_1873"
    INDEX 01 01:55:34
  TRACK 67 AUDIO
    TITLE "0:"
    INDEX 01 01:56:43
  TRACK 68 AUDIO
    TITLE "3:cjc039_1874"
    INDEX 01 01:57:21
  TRACK 69 AUDIO
    TITLE "0:"
    INDEX 01 02:01:27
  TRACK 70 AUDIO
    TITLE "2:cjc039_1875"
    INDEX 01 02:03:04
  TRACK 71 AUDIO
    TITLE "0:"
    INDEX 01 02:04:17
  TRACK 72 AUDIO
    TITLE "3:cjc039_1876"
    INDEX 01 02:04:68
  TRACK 73 AUDIO
    TITLE "0:"
    INDEX 01 02:07:55
  TRACK 74 AUDIO
    TITLE "2:cjc039_1877"
    INDEX 01 02:09:34
  TRACK 75 AUDIO
    TITLE "0:"
    INDEX 01 02:10:36
  TRACK 76 AUDIO
    TITLE "3:cjc039_1878"
    INDEX 01 02:11:17
  TRACK 77 AUDIO
    TITLE "0:"
    INDEX 01 02:14:47
  TRACK 78 AUDIO
    TITLE "2:cjc039_1879"
    INDEX 01 02:16:28
  TRACK 79 AUDIO
    TITLE "0:"
    INDEX 01 02:17:38
  TRACK 80 AUDIO
    TITLE "3:cjc039_1880"
    INDEX 01 02:18:16
  TRACK 81 AUDIO
    TITLE "0:"
    INDEX 01 02:21:08
